<svg width="24" height="25" viewBox="0 0 24 25" fill="none" xmlns="http://www.w3.org/2000/svg">
<path d="M18.7199 5.77979C18.2008 5.77979 17.7489 6.05856 17.4955 6.47166L6.89145 9.25135C6.38196 9.3851 5.95988 9.69831 5.67363 10.1082C5.47708 9.5466 4.94768 9.13979 4.31988 9.13979C3.52596 9.13979 2.87988 9.78586 2.87988 10.5798V14.4217C2.87988 15.2156 3.52596 15.8617 4.31988 15.8617C4.94809 15.8617 5.47833 15.4545 5.67457 14.8923C5.85808 15.1547 6.09872 15.3742 6.38238 15.5345L6.70676 16.8282C6.89204 17.5703 7.436 18.1566 8.16176 18.3985L8.81895 18.6188C9.05319 18.6966 9.29293 18.7342 9.52957 18.7342C10.1757 18.7342 10.7991 18.451 11.2321 17.9326L11.9474 17.0738L17.4964 18.5298C17.7501 18.9419 18.2016 19.2198 18.7199 19.2198C19.5138 19.2198 20.1599 18.5737 20.1599 17.7798V7.21979C20.1599 6.42587 19.5138 5.77979 18.7199 5.77979ZM18.7199 6.25979C19.2493 6.25979 19.6799 6.69035 19.6799 7.21979V17.7798C19.6799 18.3092 19.2493 18.7398 18.7199 18.7398C18.1904 18.7398 17.7599 18.3092 17.7599 17.7798V7.21979C17.7599 6.69035 18.1904 6.25979 18.7199 6.25979ZM17.2996 7.0201C17.2903 7.08598 17.2799 7.15139 17.2799 7.21979V17.7798C17.2799 17.8492 17.291 17.9155 17.3005 17.9823L7.01332 15.2842C6.27508 15.0902 5.75988 14.4217 5.75988 13.6585V11.341C5.75988 10.5778 6.27508 9.90979 7.01332 9.71635L17.2996 7.0201ZM4.31988 9.61979C4.84932 9.61979 5.27988 10.0503 5.27988 10.5798V11.341V13.6585V14.4217C5.27988 14.9511 4.84932 15.3817 4.31988 15.3817C3.79044 15.3817 3.35988 14.9511 3.35988 14.4217V10.5798C3.35988 10.0503 3.79044 9.61979 4.31988 9.61979ZM6.93457 15.7595L11.4346 16.9398L10.8636 17.6251C10.4004 18.1809 9.65768 18.3912 8.97176 18.1632L8.31363 17.9438C7.74435 17.7538 7.31814 17.2937 7.1727 16.712L6.93457 15.7595Z" fill="#1E1E70"/>
</svg>
