<svg width="24" height="25" viewBox="0 0 24 25" fill="none" xmlns="http://www.w3.org/2000/svg">
<path d="M5.28009 5.77979C4.48473 5.77979 3.84009 6.42443 3.84009 7.21979V17.7798C3.84009 18.5751 4.48473 19.2198 5.28009 19.2198H18.7201C19.5154 19.2198 20.1601 18.5751 20.1601 17.7798V7.21979C20.1601 6.42443 19.5154 5.77979 18.7201 5.77979H5.28009ZM5.28009 6.25979H18.7201C19.2505 6.25979 19.6801 6.68939 19.6801 7.21979V17.7798C19.6801 18.3102 19.2505 18.7398 18.7201 18.7398H5.28009C4.74969 18.7398 4.32009 18.3102 4.32009 17.7798V7.21979C4.32009 6.68939 4.74969 6.25979 5.28009 6.25979ZM17.0392 8.17979C16.9777 8.17979 16.9163 8.2033 16.8695 8.2501L15.5991 9.52041L14.8098 8.7301C14.7162 8.6365 14.564 8.6365 14.4704 8.7301C14.3768 8.8237 14.3768 8.97587 14.4704 9.06947L15.4304 10.0295C15.4774 10.076 15.5386 10.0998 15.6001 10.0998C15.6615 10.0998 15.7228 10.076 15.7688 10.0295L17.2088 8.58947C17.3024 8.49587 17.3024 8.3437 17.2088 8.2501C17.162 8.2033 17.1006 8.17979 17.0392 8.17979ZM6.96009 9.13979C6.82761 9.13979 6.72009 9.24731 6.72009 9.37979C6.72009 9.51226 6.82761 9.61979 6.96009 9.61979H12.2401C12.3726 9.61979 12.4801 9.51226 12.4801 9.37979C12.4801 9.24731 12.3726 9.13979 12.2401 9.13979H6.96009ZM17.0392 11.5398C16.9777 11.5398 16.9163 11.5633 16.8695 11.6101L15.5991 12.8804L14.8098 12.0901C14.7162 11.9965 14.564 11.9965 14.4704 12.0901C14.3768 12.1837 14.3768 12.3359 14.4704 12.4295L15.4304 13.3895C15.4774 13.436 15.5386 13.4598 15.6001 13.4598C15.6615 13.4598 15.7228 13.436 15.7688 13.3895L17.2088 11.9495C17.3024 11.8559 17.3024 11.7037 17.2088 11.6101C17.162 11.5633 17.1006 11.5398 17.0392 11.5398ZM6.96009 12.4998C6.82761 12.4998 6.72009 12.6073 6.72009 12.7398C6.72009 12.8723 6.82761 12.9798 6.96009 12.9798H12.2401C12.3726 12.9798 12.4801 12.8723 12.4801 12.7398C12.4801 12.6073 12.3726 12.4998 12.2401 12.4998H6.96009ZM17.0392 14.8998C16.9777 14.8998 16.9163 14.9233 16.8695 14.9701L15.5991 16.2404L14.8098 15.4501C14.7162 15.3565 14.564 15.3565 14.4704 15.4501C14.3768 15.5437 14.3768 15.6959 14.4704 15.7895L15.4304 16.7495C15.4774 16.796 15.5386 16.8198 15.6001 16.8198C15.6615 16.8198 15.7228 16.796 15.7688 16.7495L17.2088 15.3095C17.3024 15.2159 17.3024 15.0637 17.2088 14.9701C17.162 14.9233 17.1006 14.8998 17.0392 14.8998ZM6.96009 15.8598C6.82761 15.8598 6.72009 15.9673 6.72009 16.0998C6.72009 16.2323 6.82761 16.3398 6.96009 16.3398H12.2401C12.3726 16.3398 12.4801 16.2323 12.4801 16.0998C12.4801 15.9673 12.3726 15.8598 12.2401 15.8598H6.96009Z" fill="#1E1E70"/>
</svg>
