<svg width="16" height="17" viewBox="0 0 16 17" fill="none" xmlns="http://www.w3.org/2000/svg">
<path d="M8.00101 0.100101C7.79443 0.0996209 7.58901 0.152481 7.40757 0.257601L0.920068 3.71979C0.549988 3.93387 0.320068 4.33134 0.320068 4.75854V12.2417C0.320068 12.6693 0.550288 13.0667 0.927568 13.2842L7.40007 16.7389C7.58583 16.8464 7.79458 16.9001 8.00194 16.9001C8.20786 16.9001 8.41209 16.8482 8.59257 16.7435L15.0801 13.2814C15.4501 13.0673 15.6801 12.6689 15.6801 12.2417V4.75854C15.6801 4.33086 15.4498 3.933 15.0726 3.71604L8.60007 0.261351C8.41503 0.154311 8.20759 0.100581 8.00101 0.100101ZM7.76007 0.626976V8.45416C7.76007 8.54248 7.71172 8.62334 7.63444 8.6651L0.815068 12.3542C0.809035 12.3168 0.800068 12.2801 0.800068 12.2417V4.75854C0.800068 4.50222 0.938008 4.26365 1.15257 4.13885L7.64007 0.676663C7.67807 0.654595 7.7193 0.641453 7.76007 0.626976ZM8.24007 0.627913C8.2831 0.643093 8.32685 0.656929 8.36757 0.680413L14.8401 4.1351C15.0618 4.26326 15.2001 4.50222 15.2001 4.75854V12.2417C15.2001 12.2801 15.1911 12.3168 15.1851 12.3542L13.0879 11.2198V6.68135C13.0879 6.53975 13.0102 6.40963 12.8854 6.34291L10.6832 5.1626C10.555 5.09444 10.4001 5.18733 10.4001 5.33229V9.76573L8.36569 8.6651C8.28841 8.62286 8.24007 8.54248 8.24007 8.45416V0.627913ZM5.46788 4.4201C5.43584 4.41816 5.4023 4.42477 5.37038 4.44073L3.17194 5.53948C3.04186 5.60476 2.96007 5.7381 2.96007 5.88354V7.63854C2.96007 7.78158 3.10989 7.87488 3.23757 7.81104L5.43601 6.71229C5.56609 6.64701 5.64788 6.51367 5.64788 6.36823V4.61229C5.64788 4.50501 5.564 4.42593 5.46788 4.4201ZM8.00007 9.04573C8.03937 9.04573 8.07892 9.05559 8.11444 9.07479L14.9563 12.776C14.9218 12.8069 14.8878 12.8388 14.8476 12.8623L8.36007 16.3245C8.13783 16.4526 7.86249 16.4532 7.63257 16.3207L1.16007 12.8651C1.11716 12.8403 1.08008 12.8085 1.04382 12.776L7.88569 9.07479C7.92145 9.05559 7.96077 9.04573 8.00007 9.04573Z" fill="#1E1E70"/>
</svg>
