<svg width="20" height="14" viewBox="0 0 20 14" fill="none" xmlns="http://www.w3.org/2000/svg">
<path d="M2.55988 0.259766C1.63348 0.259766 0.879883 1.01337 0.879883 1.93977V11.5398C0.879883 12.4662 1.63348 13.2198 2.55988 13.2198H17.4399C18.3663 13.2198 19.1199 12.4662 19.1199 11.5398V1.93977C19.1199 1.01337 18.3663 0.259766 17.4399 0.259766H2.55988ZM2.55988 0.739766H17.4399C18.1018 0.739766 18.6399 1.27833 18.6399 1.93977V11.5398C18.6399 12.2012 18.1018 12.7398 17.4399 12.7398H2.55988C1.89796 12.7398 1.35988 12.2012 1.35988 11.5398V1.93977C1.35988 1.27833 1.89796 0.739766 2.55988 0.739766ZM3.21145 2.17977C2.98441 2.17977 2.79988 2.3588 2.79988 2.58008V4.18039C2.79988 4.40119 2.98441 4.57977 3.21145 4.57977H5.26832C5.49536 4.57977 5.67988 4.40073 5.67988 4.17945V2.57914C5.67988 2.35834 5.49536 2.17977 5.26832 2.17977H3.21145ZM11.6799 3.13977C11.5474 3.13977 11.4399 3.24729 11.4399 3.37977C11.4399 3.51225 11.5474 3.61977 11.6799 3.61977H16.9599C17.0924 3.61977 17.1999 3.51225 17.1999 3.37977C17.1999 3.24729 17.0924 3.13977 16.9599 3.13977H11.6799ZM3.03988 7.93977C2.9074 7.93977 2.79988 8.04729 2.79988 8.17977C2.79988 8.31225 2.9074 8.41977 3.03988 8.41977H5.43988C5.57236 8.41977 5.67988 8.31225 5.67988 8.17977C5.67988 8.04729 5.57236 7.93977 5.43988 7.93977H3.03988ZM6.87988 7.93977C6.7474 7.93977 6.63988 8.04729 6.63988 8.17977C6.63988 8.31225 6.7474 8.41977 6.87988 8.41977H9.27988C9.41236 8.41977 9.51988 8.31225 9.51988 8.17977C9.51988 8.04729 9.41236 7.93977 9.27988 7.93977H6.87988ZM10.7199 7.93977C10.5874 7.93977 10.4799 8.04729 10.4799 8.17977C10.4799 8.31225 10.5874 8.41977 10.7199 8.41977H13.1199C13.2524 8.41977 13.3599 8.31225 13.3599 8.17977C13.3599 8.04729 13.2524 7.93977 13.1199 7.93977H10.7199ZM14.5599 7.93977C14.4274 7.93977 14.3199 8.04729 14.3199 8.17977C14.3199 8.31225 14.4274 8.41977 14.5599 8.41977H16.9599C17.0924 8.41977 17.1999 8.31225 17.1999 8.17977C17.1999 8.04729 17.0924 7.93977 16.9599 7.93977H14.5599ZM3.03988 9.85977C2.9074 9.85977 2.79988 9.96729 2.79988 10.0998C2.79988 10.2322 2.9074 10.3398 3.03988 10.3398H7.83988C7.97236 10.3398 8.07988 10.2322 8.07988 10.0998C8.07988 9.96729 7.97236 9.85977 7.83988 9.85977H3.03988Z" fill="#1E1E70"/>
</svg>
